[Header]
FileType HTR
DataType HTRS
FileVersion 1
NumSegments 48
NumFrames 4
DataFrameRate 30
EulerRotationOrder ZYX
CalibrationUnits mm
RotationUnits Degrees
GlobalAxisofGravity Y
BoneLengthAxis Y
ScaleFactor 1.0
[SegmentNames&Hierarchy]
Wolf	GLOBAL
Becken	Wolf
Bauch	Becken
Bauch_001	Bauch
Brust	Bauch_001
Hals	Brust
Kopf_002	Hals
Kopf	Kopf_002
Unterkiefer	Kopf
Hals_fett	Unterkiefer
Maulunten	Unterkiefer
Mauloben	Kopf
MundW_L	Kopf
MundW_R	Kopf
Augen_con	Kopf
IK_Aug_R	Augen_con
IK_Aug_L	Augen_con
Aug_R	Kopf
aug_L	Kopf
Ohr_L	Kopf
Ohr_R	Kopf
Braun_O_L	Kopf
Braun_O_R	Kopf
aug_lied_O_L	Kopf
aug_lied_O_R	Kopf
aug_lied_U_L	Kopf
aug_lied_U_R	Kopf
Bauch_003	Brust
Schalterplatte_L	Bauch_003
Oberarm_L	Schalterplatte_L
Unterarm_L	Oberarm_L
Vorderpfote_L	Unterarm_L
Schalterplatte_R	Bauch_003
Oberarm_R	Schalterplatte_R
Unterarm_R	Oberarm_R
Vorderpfote_R	Unterarm_R
Schwanz	Becken
Schwanz_001	Schwanz
Schwanz_002	Schwanz_001
Schwanz_003	Schwanz_002
Oberschenkel_L	Becken
Unterschenkel_L	Oberschenkel_L
Pfote1_L	Unterschenkel_L
Pfote2_L	Pfote1_L
Oberschenkel_R	Becken
Unterschenkel_R	Oberschenkel_R
Pfote1_R	Unterschenkel_R
Pfote2_R	Pfote1_R
[BasePosition]
Wolf	0	0	0	0	0	0	1
Becken	0	0	0	0	0	0	1
Bauch	0	0	0	0	0	0	1
Bauch_001	0	0	0	0	0	0	1
Brust	0	0	0	0	0	0	1
Hals	0	0	0	0	0	0	1
Kopf_002	0	0	0	0	0	0	1
Kopf	0	0	0	0	0	0	1
Unterkiefer	0	0	0	0	0	0	1
Hals_fett	0	0	0	0	0	0	1
Maulunten	0	0	0	0	0	0	1
Mauloben	0	0	0	0	0	0	1
MundW_L	0	0	0	0	0	0	1
MundW_R	0	0	0	0	0	0	1
Augen_con	0	0	0	0	0	0	1
IK_Aug_R	0	0	0	0	0	0	1
IK_Aug_L	0	0	0	0	0	0	1
Aug_R	0	0	0	0	0	0	1
aug_L	0	0	0	0	0	0	1
Ohr_L	0	0	0	0	0	0	1
Ohr_R	0	0	0	0	0	0	1
Braun_O_L	0	0	0	0	0	0	1
Braun_O_R	0	0	0	0	0	0	1
aug_lied_O_L	0	0	0	0	0	0	1
aug_lied_O_R	0	0	0	0	0	0	1
aug_lied_U_L	0	0	0	0	0	0	1
aug_lied_U_R	0	0	0	0	0	0	1
Bauch_003	0	0	0	0	0	0	1
Schalterplatte_L	0	0	0	0	0	0	1
Oberarm_L	0	0	0	0	0	0	1
Unterarm_L	0	0	0	0	0	0	1
Vorderpfote_L	0	0	0	0	0	0	1
Schalterplatte_R	0	0	0	0	0	0	1
Oberarm_R	0	0	0	0	0	0	1
Unterarm_R	0	0	0	0	0	0	1
Vorderpfote_R	0	0	0	0	0	0	1
Schwanz	0	0	0	0	0	0	1
Schwanz_001	0	0	0	0	0	0	1
Schwanz_002	0	0	0	0	0	0	1
Schwanz_003	0	0	0	0	0	0	1
Oberschenkel_L	0	0	0	0	0	0	1
Unterschenkel_L	0	0	0	0	0	0	1
Pfote1_L	0	0	0	0	0	0	1
Pfote2_L	0	0	0	0	0	0	1
Oberschenkel_R	0	0	0	0	0	0	1
Unterschenkel_R	0	0	0	0	0	0	1
Pfote1_R	0	0	0	0	0	0	1
Pfote2_R	0	0	0	0	0	0	1
[Wolf]
41	0	0	0	-90	-0	0	1.0
42	0	0	0	-90	-0	0	1.0
43	0	0	0	-90	-0	0	1.0
44	0	0	0	-90	-0	0	1.0
[Becken]
41	0	0.9792302847	-2.643569708	8.113015042e-07	214.0282288	90	1.0
42	0	0.9878783226	-2.709905863	8.113015042e-07	214.9345551	90	1.0
43	0	0.9900403023	-2.726490021	8.113015042e-07	215.1611328	90	1.0
44	0	0.9900403023	-2.726490021	8.113015042e-07	215.1611328	90	1.0
[Bauch]
41	0.8208995461	7.099878729e-08	-0.5382379293	-9.673251498e-07	43.74964523	-1.068382929e-07	1.0
42	0.8184143305	7.099878729e-08	-0.5420286655	-9.673251498e-07	44.38971329	-1.068382929e-07	1.0
43	0.8177930117	7.099878729e-08	-0.5429763794	-9.673251498e-07	44.54973221	-1.068382929e-07	1.0
44	0.8177930117	7.099878729e-08	-0.5429763794	-9.673251498e-07	44.54973221	-1.068382929e-07	1.0
[Bauch_001]
41	0.737732172	8.168100152e-08	-0.04041463882	-1.782821641e-07	-16.48361015	-3.672270932e-09	1.0
42	0.7305737734	8.168100152e-08	-0.04202844575	-1.782821641e-07	-16.87374687	-3.672270932e-09	1.0
43	0.7287841439	8.168100152e-08	-0.04242144153	-1.782821641e-07	-16.97128105	-3.672270932e-09	1.0
44	0.7287841439	8.168100152e-08	-0.04240750521	-1.782821641e-07	-16.97128105	-3.672270932e-09	1.0
[Brust]
41	0.8913579583	8.077002889e-08	-0.03458371013	-1.076636636e-06	-11.70488167	-2.124970933e-06	1.0
42	0.8876495361	8.077002889e-08	-0.03458371013	-1.076636636e-06	-12.27086258	-2.124970933e-06	1.0
43	0.8867223263	8.077002889e-08	-0.03458371013	-1.076636636e-06	-12.41235828	-2.124970933e-06	1.0
44	0.8867223263	8.077002889e-08	-0.03458371013	-1.076636636e-06	-12.41235828	-2.124970933e-06	1.0
[Hals]
41	0.9951692224	9.497803433e-08	0.2670945227	-4.618911134e-06	20.16584015	-2.002489964e-06	1.0
42	0.9897061586	9.497803433e-08	0.2600080371	-4.618911134e-06	19.61517906	-2.002489964e-06	1.0
43	0.9883403778	9.497803433e-08	0.258236438	-4.618911134e-06	19.47751427	-2.002489964e-06	1.0
44	0.9883403778	9.497803433e-08	0.258236438	-4.618911134e-06	19.47751427	-2.002489964e-06	1.0
[Kopf_002]
41	1.752595305	3.013231981e-05	0.265181601	0.006653485354	-165.1497192	0.002557621105	1.0
42	1.752595305	3.013231981e-05	0.265181601	0.006653485354	-165.1497192	0.002557621105	1.0
43	1.752595305	3.013231981e-05	0.265181601	0.006653485354	-165.1497192	0.002557621105	1.0
44	1.752595305	3.013231981e-05	0.265181601	0.006653485354	-165.1497192	0.002557621105	1.0
[Kopf]
41	1.015781879	7.661583368e-08	5.763315869e-08	-0.05200054869	95.72164154	-0.1432264596	1.0
42	1.015781879	7.661583368e-08	5.763315869e-08	-0.06187430397	95.35897064	-0.1530548781	1.0
43	1.015781879	7.661583368e-08	5.763315869e-08	-0.06434274465	95.26830292	-0.1555119902	1.0
44	1.015781879	7.661583368e-08	5.763315869e-08	-0.06434274465	95.26830292	-0.1555119902	1.0
[Unterkiefer]
41	0.637044847	0.00455273781	0.4060620368	5.412722588	-68.3888092	-3.093543291	1.0
42	0.637044847	0.00455273781	0.4060620368	5.412722588	-68.3888092	-3.093543291	1.0
43	0.637044847	0.00455273781	0.4060620368	5.412722588	-68.3888092	-3.093543291	1.0
44	0.637044847	0.00455273781	0.4060620368	5.412722588	-68.3888092	-3.093543291	1.0
[Hals_fett]
41	0.2998302579	0.007747155149	0.1206375211	-5.071650982	-59.35961151	5.585565567	1.0
42	0.2998302579	0.007747155149	0.1206375211	-5.071650982	-59.35961151	5.585565567	1.0
43	0.2998302579	0.007747155149	0.1206375211	-5.071650982	-59.35961151	5.585565567	1.0
44	0.2998302579	0.007747155149	0.1206375211	-5.071650982	-59.35961151	5.585565567	1.0
[Maulunten]
41	0.08317930996	-0.007747315802	-0.120645985	-3.322209358	38.97270584	-0.8718757033	1.0
42	0.08317930996	-0.007747315802	-0.120645985	-3.322209358	38.97270584	-0.8718757033	1.0
43	0.08317930996	-0.007747315802	-0.120645985	-3.322209358	38.97270584	-0.8718757033	1.0
44	0.08317930996	-0.007747315802	-0.120645985	-3.322209358	38.97270584	-0.8718757033	1.0
[Mauloben]
41	0.9101490974	0.0004056774778	0.4003698826	-0.1032676771	-28.7776947	0.03543145955	1.0
42	0.9101490974	0.0004056774778	0.4003698826	-0.1032676771	-28.7776947	0.03543145955	1.0
43	0.9101490974	0.0004056774778	0.4003698826	-0.1032676771	-28.7776947	0.03543145955	1.0
44	0.9101490974	0.0004056774778	0.4003698826	-0.1032676771	-28.7776947	0.03543145955	1.0
[MundW_L]
41	0.673060894	-0.3618556559	0.3751283586	-179.8370972	-17.94885445	24.713974	1.0
42	0.673060894	-0.3618556559	0.3751283586	-179.8370972	-17.94885445	24.713974	1.0
43	0.673060894	-0.3618556559	0.3751283586	-179.8370972	-17.94885445	24.713974	1.0
44	0.673060894	-0.3618556559	0.3751283586	-179.8370972	-17.94885445	24.713974	1.0
[MundW_R]
41	0.6732422113	0.362703532	0.3739836812	179.665329	-18.02427101	-24.69083595	1.0
42	0.6732422113	0.362703532	0.3739836812	179.665329	-18.02427101	-24.69083595	1.0
43	0.6732422113	0.362703532	0.3739836812	179.665329	-18.02427101	-24.69083595	1.0
44	0.6732422113	0.362703532	0.3739836812	179.665329	-18.02427101	-24.69083595	1.0
[Augen_con]
41	1.807373524	-0.0001604080026	0.1835817248	0.09822228551	157.1545258	0.02385942452	1.0
42	1.807373524	-0.0001604080026	0.1835817248	0.09822228551	157.1545258	0.02385942452	1.0
43	1.807373524	-0.0001604080026	0.1835817248	0.09822228551	157.1545258	0.02385942452	1.0
44	1.807373524	-0.0001604080026	0.1835817248	0.09822228551	157.1545258	0.02385942452	1.0
[IK_Aug_R]
41	0.3461307585	0.2943200171	-1.058367616e-07	-0.4194758832	-4.963055134	165.6946411	1.0
42	0.3461307585	0.2943200171	-1.058367616e-07	-0.4194758832	-4.963055134	165.6946411	1.0
43	0.3461307585	0.2943200171	-1.058367616e-07	-0.4194758832	-4.963055134	165.6946411	1.0
44	0.3461307585	0.2943200171	-1.058367616e-07	-0.4194758832	-4.963055134	165.6946411	1.0
[IK_Aug_L]
41	0.3461304903	-0.2943199575	-2.746332939e-08	0.4194765091	-4.963055611	-165.6946411	1.0
42	0.3461304903	-0.2943199575	-2.746332939e-08	0.4194765091	-4.963055611	-165.6946411	1.0
43	0.3461304903	-0.2943199575	-2.746332939e-08	0.4194765091	-4.963055611	-165.6946411	1.0
44	0.3461304903	-0.2943199575	-2.746332939e-08	0.4194765091	-4.963055611	-165.6946411	1.0
[Aug_R]
41	1.035155058	0.2207805961	-0.09605777264	176.004776	-17.29166603	12.85548115	1.0
42	1.035155058	0.2207805961	-0.09605777264	176.004776	-17.29166603	12.85548115	1.0
43	1.035155058	0.2207805961	-0.09605777264	176.004776	-17.29166603	12.85548115	1.0
44	1.035155058	0.2207805961	-0.09605777264	176.004776	-17.29166603	12.85548115	1.0
[aug_L]
41	1.035044312	-0.2215988934	-0.09535890818	-176.1891022	-17.3318119	-12.83103085	1.0
42	1.035044312	-0.2215988934	-0.09535890818	-176.1891022	-17.3318119	-12.83103085	1.0
43	1.035044312	-0.2215988934	-0.09535890818	-176.1891022	-17.3318119	-12.83103085	1.0
44	1.035044312	-0.2215988934	-0.09535890818	-176.1891022	-17.3318119	-12.83103085	1.0
[Ohr_L]
41	0.640776813	-0.365999192	-0.6893324256	-24.34924316	53.07765961	-15.02013206	1.0
42	0.640776813	-0.365999192	-0.6893324256	-24.34924316	53.07765961	-15.02013206	1.0
43	0.640776813	-0.365999192	-0.6893324256	-24.34924316	53.07765961	-15.02013206	1.0
44	0.640776813	-0.365999192	-0.6893324256	-24.34924316	53.07765961	-15.02013206	1.0
[Ohr_R]
41	0.6409582496	0.3634999394	-0.6904847622	24.05786514	53.12416458	14.75857353	1.0
42	0.6409582496	0.3634999394	-0.6904847622	24.05786514	53.12416458	14.75857353	1.0
43	0.6409582496	0.3634999394	-0.6904847622	24.05786514	53.12416458	14.75857353	1.0
44	0.6409582496	0.3634999394	-0.6904847622	24.05786514	53.12416458	14.75857353	1.0
[Braun_O_L]
41	0.9801892042	-0.3706049621	-0.3292512298	-143.317215	-34.69636154	52.39493561	1.0
42	0.9801892042	-0.3706049621	-0.3292512298	-143.317215	-34.69636154	52.39493561	1.0
43	0.9801892042	-0.3706049621	-0.3292512298	-143.317215	-34.69636154	52.39493561	1.0
44	0.9801892042	-0.3706049621	-0.3292512298	-143.317215	-34.69636154	52.39493561	1.0
[Braun_O_R]
41	0.9803638458	0.369074285	-0.3304226696	143.1826782	-34.83971405	-52.3467598	1.0
42	0.9803638458	0.369074285	-0.3304226696	143.1826782	-34.83971405	-52.3467598	1.0
43	0.9803638458	0.369074285	-0.3304226696	143.1826782	-34.83971405	-52.3467598	1.0
44	0.9803638458	0.369074285	-0.3304226696	143.1826782	-34.83971405	-52.3467598	1.0
[aug_lied_O_L]
41	1.038891912	-0.3271433413	-0.1608080417	-175.8613434	-20.1559639	60.31666946	1.0
42	1.038891912	-0.3271433413	-0.1608080417	-175.8613434	-20.1559639	60.31666946	1.0
43	1.038891912	-0.3271433413	-0.1608080417	-175.8613434	-20.1559639	60.31666946	1.0
44	1.038891912	-0.3271433413	-0.1608080417	-175.8613434	-20.1559639	60.31666946	1.0
[aug_lied_O_R]
41	1.039044738	0.3261157572	-0.1618430018	175.7657928	-20.31323814	-60.31218338	1.0
42	1.039044738	0.3261157572	-0.1618430018	175.7657928	-20.31323814	-60.31218338	1.0
43	1.039044738	0.3261157572	-0.1618430018	175.7657928	-20.31323814	-60.31218338	1.0
44	1.039044738	0.3261157572	-0.1618430018	175.7657928	-20.31323814	-60.31218338	1.0
[aug_lied_U_L]
41	1.021916389	-0.3312866092	-0.133848846	-159.8099365	-28.7482872	60.17461395	1.0
42	1.021916389	-0.3312866092	-0.133848846	-159.8099365	-28.7482872	60.17461395	1.0
43	1.021916389	-0.3312866092	-0.133848846	-159.8099365	-28.7482872	60.17461395	1.0
44	1.021916389	-0.3312866092	-0.133848846	-159.8099365	-28.7482872	60.17461395	1.0
[aug_lied_U_R]
41	1.022078514	0.3303526342	-0.134884432	159.7071381	-28.90532303	-60.15359116	1.0
42	1.022078514	0.3303526342	-0.134884432	159.7071381	-28.90532303	-60.15359116	1.0
43	1.022078514	0.3303526342	-0.134884432	159.7071381	-28.90532303	-60.15359116	1.0
44	1.022078514	0.3303526342	-0.134884432	159.7071381	-28.90532303	-60.15359116	1.0
[Bauch_003]
41	1.276869178	9.640096721e-08	-0.607956171	-3.938862392e-06	-137.6799469	1.017604518e-05	1.0
42	1.276869178	9.640096721e-08	-0.607956171	-3.938862392e-06	-137.6799469	1.017604518e-05	1.0
43	1.276869178	9.640096721e-08	-0.607956171	-3.938862392e-06	-137.6799469	1.017604518e-05	1.0
44	1.276869178	9.640096721e-08	-0.607956171	-3.938862392e-06	-137.6799469	1.017604518e-05	1.0
[Schalterplatte_L]
41	0.892570734	-0.3820799589	-2.353006607e-07	4.263719559	70.25968933	-19.05021477	1.0
42	0.892570734	-0.3820799589	-2.353006607e-07	3.671848297	70.77322388	-19.62929726	1.0
43	0.892570734	-0.3820799589	-2.353006607e-07	3.523880482	70.9016037	-19.77406883	1.0
44	0.892570734	-0.3820799589	-2.353006607e-07	3.523880482	70.9016037	-19.77406883	1.0
[Oberarm_L]
41	1.41863656	-1.373700798e-07	-9.313225746e-08	-84.53314209	-65.40422058	94.71317291	1.0
42	1.41863656	-1.373700798e-07	-9.313225746e-08	-86.35033417	-65.51938629	96.90357208	1.0
43	1.41863656	-1.373700798e-07	-9.313225746e-08	-86.80463409	-65.54817963	97.45117188	1.0
44	1.41863656	-1.373700798e-07	-9.313225746e-08	-86.80463409	-65.54817963	97.45117188	1.0
[Unterarm_L]
41	2.028227091	1.303851604e-07	-3.434251994e-07	6.324894905	50.67105103	7.250563622	1.0
42	2.028227091	1.303851604e-07	-3.434251994e-07	6.801704407	51.58188629	7.803878784	1.0
43	2.028227091	1.303851604e-07	-3.434251994e-07	6.920906544	51.8095932	7.942207813	1.0
44	2.028227091	1.303851604e-07	-3.434251994e-07	6.920906544	51.8095932	7.942207813	1.0
[Vorderpfote_L]
41	1.705947638	9.313225746e-08	2.281740308e-07	-1.995377183	65.88176727	0.47579813	1.0
42	1.705947638	9.313225746e-08	2.281740308e-07	-1.894374251	65.94290161	0.6230818033	1.0
43	1.705947638	9.313225746e-08	2.281740308e-07	-1.869123578	65.95818329	0.6599027514	1.0
44	1.705947638	9.313225746e-08	2.281740308e-07	-1.869123578	65.95818329	0.6599027514	1.0
[Schalterplatte_R]
41	0.892570734	0.3820800483	-2.117341893e-07	2.198285103	68.32125854	32.82938385	1.0
42	0.892570734	0.3820800483	-2.117341893e-07	2.798973322	68.83738708	33.54856491	1.0
43	0.892570734	0.3820800483	-2.117341893e-07	2.949145317	68.96642303	33.72835922	1.0
44	0.892570734	0.3820800483	-2.117341893e-07	2.949145317	68.96642303	33.72835922	1.0
[Oberarm_R]
41	1.418636322	9.080395103e-08	-2.305023372e-07	81.17477417	-53.10663223	-95.33561707	1.0
42	1.418636322	9.080395103e-08	-2.305023372e-07	82.3145752	-53.0879631	-96.90567017	1.0
43	1.418636322	9.080395103e-08	-2.305023372e-07	82.59952545	-53.08329391	-97.29817963	1.0
44	1.418636322	9.080395103e-08	-2.305023372e-07	82.59952545	-53.08329391	-97.29817963	1.0
[Unterarm_R]
41	2.028232098	7.450580597e-08	-3.958120942e-08	-1.113140225	49.6167984	-1.058735967	1.0
42	2.028232098	7.450580597e-08	-3.958120942e-08	-1.303476214	50.55038834	-1.282921195	1.0
43	2.028232098	7.450580597e-08	-3.958120942e-08	-1.351060271	50.78378677	-1.338967562	1.0
44	2.028232098	7.450580597e-08	-3.958120942e-08	-1.351060271	50.78378677	-1.338967562	1.0
[Vorderpfote_R]
41	1.705937862	1.210719205e-07	-8.381903172e-08	2.013942957	64.99355316	0.4416679144	1.0
42	1.705937862	1.210719205e-07	-8.381903172e-08	1.947740674	65.05857086	0.3409639299	1.0
43	1.705937862	1.210719205e-07	-8.381903172e-08	1.931190133	65.07482147	0.3157879412	1.0
44	1.705937862	1.210719205e-07	-8.381903172e-08	1.931190133	65.07482147	0.3157879412	1.0
[Schwanz]
41	-0.0006502121687	-2.110689845e-09	-0.005962625146	-2.620213309e-06	-200.5062714	9.3831095e-06	1.0
42	-0.0006502121687	-2.110689845e-09	-0.0086902529	-2.620213309e-06	-201.5471802	9.3831095e-06	1.0
43	-0.0006502121687	-2.110689845e-09	-0.009372159839	-2.620213309e-06	-201.8074036	9.3831095e-06	1.0
44	-0.0006502121687	-2.110689845e-09	-0.009372159839	-2.620213309e-06	-201.8074036	9.3831095e-06	1.0
[Schwanz_001]
41	0.9104328752	6.873576552e-08	-9.313230187e-09	5.759830515e-07	-17.04895401	-3.817856964e-08	1.0
42	0.9104328752	6.873576552e-08	-9.313230187e-09	5.759830515e-07	-17.24552727	-3.817856964e-08	1.0
43	0.9104328752	6.873576552e-08	-9.313230187e-09	5.759830515e-07	-17.2946701	-3.817856964e-08	1.0
44	0.9104328752	6.873576552e-08	-9.313230187e-09	5.759830515e-07	-17.2946701	-3.817856964e-08	1.0
[Schwanz_002]
41	0.7855662107	5.930859004e-08	3.725289943e-08	1.063837431e-06	3.663340807	-1.28896616e-07	1.0
42	0.7855662107	5.930859004e-08	3.725289943e-08	1.063837431e-06	4.025468826	-1.28896616e-07	1.0
43	0.7855662107	5.930859004e-08	3.725289943e-08	1.063837431e-06	4.116001129	-1.28896616e-07	1.0
44	0.7855662107	5.930859004e-08	3.725289943e-08	1.063837431e-06	4.116001129	-1.28896616e-07	1.0
[Schwanz_003]
41	0.8350355029	6.304340872e-08	-9.313230187e-09	8.881865483e-07	-11.6031208	-9.02429278e-08	1.0
42	0.8350355029	6.304340872e-08	-9.313230187e-09	8.881865483e-07	-11.6031208	-9.02429278e-08	1.0
43	0.8350355029	6.304340872e-08	-9.313230187e-09	8.881865483e-07	-11.6031208	-9.02429278e-08	1.0
44	0.8350355029	6.304340872e-08	-9.313230187e-09	8.881865483e-07	-11.6031208	-9.02429278e-08	1.0
[Oberschenkel_L]
41	-0.006443830673	-0.5837000012	0.09572792798	10.07857704	-22.79474068	-2.523280382	1.0
42	-0.01786634512	-0.5837000012	0.0957454741	10.01696968	-21.21424866	-2.357477903	1.0
43	-0.02072197385	-0.5837000012	0.09576302767	10.00156784	-20.81912613	-2.316027403	1.0
44	-0.02072197385	-0.5837000012	0.09578057379	10.00156784	-20.81912613	-2.316027403	1.0
[Unterschenkel_L]
41	1.686439037	1.234002411e-07	4.656610209e-09	2.799573183	-155.7377319	-4.387178898	1.0
42	1.686439037	1.234002411e-07	4.656610209e-09	3.669865608	-154.6690826	-3.960971117	1.0
43	1.686439037	1.234002411e-07	4.656610209e-09	3.887438774	-154.4019165	-3.854419231	1.0
44	1.686439037	1.234002411e-07	4.656610209e-09	3.887438774	-154.4019165	-3.854419231	1.0
[Pfote1_L]
41	1.190900445	1.862644972e-08	2.56113708e-08	12.87989616	130.79599	1.106359005	1.0
42	1.190900445	1.862644972e-08	2.56113708e-08	12.88273335	130.7726898	1.110104799	1.0
43	1.190900445	1.862644972e-08	2.56113708e-08	12.88344288	130.766861	1.111041188	1.0
44	1.190900445	1.862644972e-08	2.56113708e-08	12.88344288	130.766861	1.111041188	1.0
[Pfote2_L]
41	0.9876260757	1.490116119e-07	4.889443872e-08	172.2965393	160.3291168	204.4037018	1.0
42	0.9876260757	1.490116119e-07	4.889443872e-08	171.4135742	163.8078461	204.2452087	1.0
43	0.9876260757	1.490116119e-07	4.889443872e-08	171.1928253	164.677536	204.2055817	1.0
44	0.9876260757	1.490116119e-07	4.889443872e-08	171.1928253	164.677536	204.2055817	1.0
[Oberschenkel_R]
41	-0.006444109138	0.5837000608	0.09572830051	-10.05032921	-22.09744835	2.449273109	1.0
42	-0.01786650531	0.5837000608	0.09574584663	-10.01364708	-21.13920975	2.34918642	1.0
43	-0.02072210424	0.5837000608	0.0957633853	-10.00447655	-20.89965057	2.324164629	1.0
44	-0.02072210424	0.5837000608	0.09578093141	-10.00447655	-20.89965057	2.324164629	1.0
[Unterschenkel_R]
41	1.686449051	1.431908458e-07	-1.396983951e-08	7.472948551	-155.8025208	2.126652718	1.0
42	1.686449051	1.431908458e-07	-1.396983951e-08	6.933041573	-154.5719604	1.66685307	1.0
43	1.686449051	1.431908458e-07	-1.396983951e-08	6.798064709	-154.2643127	1.551903129	1.0
44	1.686449051	1.431908458e-07	-1.396983951e-08	6.798064709	-154.2643127	1.551903129	1.0
[Pfote1_R]
41	1.190900326	7.101335342e-08	-4.307366908e-08	6.440394878	130.6094666	11.77256966	1.0
42	1.190900326	7.101335342e-08	-4.307366908e-08	6.338346004	131.6746216	11.63677788	1.0
43	1.190900326	7.101335342e-08	-4.307366908e-08	6.312833786	131.9409027	11.60282993	1.0
44	1.190900326	7.101335342e-08	-4.307366908e-08	6.312833786	131.9409027	11.60282993	1.0
[Pfote2_R]
41	0.9876257181	1.071020961e-07	3.49246001e-08	-174.3035431	160.9298859	-202.5062103	1.0
42	0.9876257181	1.071020961e-07	3.49246001e-08	-172.956604	164.8532867	-202.1915588	1.0
43	0.9876257181	1.071020961e-07	3.49246001e-08	-172.619873	165.834137	-202.1128998	1.0
44	0.9876257181	1.071020961e-07	3.49246001e-08	-172.619873	165.834137	-202.1128998	1.0
[EndOfFile]
